# xmcd
#
# Track frame offsets: 
#        150
#        21372
#        40207
#        67186
#        92299
#        109879
#        135368
#        151723
#        179479
#        202125
#
# Disc length: 2795 seconds
#
# Revision: 0
# Processed by: cddbd v1.5.2PL0 Copyright (c) Steve Scherf et al.
# Submitted via: ExactAudioCopyFreeDBPlugin 1.0
#
DISCID=840ae90a
DTITLE=Susheela Raman - Music For Crocodiles
DYEAR=2005
DGENRE=Crossover
TTITLE0=What Silence Said
TTITLE1=The Same Song
TTITLE2=Light Years
TTITLE3=Idi Samayam
TTITLE4=Meanwhile
TTITLE5=Chordhiya
TTITLE6=L'Ame Volatile
TTITLE7=Sharavanna
TTITLE8=Music For Crocodiles
TTITLE9=Light Years - Intro - intro
EXTD=Susheela Raman,英籍印裔女歌手，她的专辑结合了英文和印度语，但都以印度音乐为根基，即使是用英文演唱的歌曲，也大多改编
EXTD=自印度音乐，歌曲大多反映了女性生活与情感的遭遇，带着印度音乐的旖旎委婉，又因她磁性的嗓音而愈发的深情迷人。 \nSusheela虽
EXTD=然只出版了两张专辑，但两张专辑都制作得非常出色，特别是她的第一张专辑《Salt Rain》，历时三年才制作完成，与来自喀麦隆、几内
EXTD=亚、希腊、印度、法国等世界各地国家的音乐家合作，是一张风格独特、多元素融合的专辑，这张专辑一经发行，Susheela即凭这张专辑获
EXTD=得了BBC3台颁发的世界音乐最佳新人奖。 \nNagumomo为印度传统音乐\nCheb Mami,原名Mohamed Kheli
EXTD=fati。1966年7月出生于奥兰附近的小城。奥兰－阿尔及利亚西北部港市。Cheb Mami在奥兰方言中的意思是“小家伙”(\\&
EXTD=quot;the kid\\&quot;)自小他就在受到当地丰富的民间音乐的熏陶“A little for my God and 
EXTD=a little for my heart”这句阿拉伯格言也成了Cheb Mami的座右铭。1985年Cheb Mami前往巴黎发
EXTD=展的时候发现早年发行的磁带已先他抵达了法国，并引起了多方关注其后他逐渐成为被西方主流社会广为人知的RAI音乐家 1989年海湾战争
EXTD=爆发，西方国家的坦克碾压科威特沙漠时，Cheb Mami的世界化进程也受到了阻碍--作为地域性很强的音乐形式，向世界上其他地区扩张
EXTD=的时候不可避免地必须要得到西方主流文化的认同所谓文化多样性，在更多的时候大概是弱势文化用来自我安慰的。              
EXTD=    Susheela Raman,英籍印裔女歌手，她的专辑结合了英文和印度语，但都以印度音乐为根基，即使是
EXTD=用英文演唱的歌曲，也大多改编自印度音乐，歌曲大多反映了女性生活与情感的遭遇，带着印度音乐的旖旎委婉，又因她磁性的嗓音而愈发的深情迷
EXTD=人。Susheela的第一张专辑《Salt Rain》，历时三年才制作完成，与来自喀麦隆、几内亚、希腊、印度、法国等世界各地国家的
EXTD=音乐家合作，是一张风格独特、多元素融合的专辑，这张专辑一经发行，Susheela即凭这张专辑获得了BBC3台颁发的世界音乐最佳新人
EXTD=奖。\n
EXTT0=
EXTT1=
EXTT2=
EXTT3=
EXTT4=
EXTT5=
EXTT6=
EXTT7=
EXTT8=
EXTT9=
PLAYORDER=
